<mxfile host="app.diagrams.net" modified="2021-05-13T09:35:18.726Z" agent="5.0 (Windows NT 10.0; Win64; x64) AppleWebKit/537.36 (KHTML, like Gecko) Chrome/90.0.4430.93 Safari/537.36" etag="OGs08VqnfWw7Witz7b3G" version="14.6.9" type="github">
  <diagram id="qkHvnofwikzdQ6fEvEg6" name="Page-1">
    <mxGraphModel dx="1038" dy="547" grid="1" gridSize="10" guides="1" tooltips="1" connect="1" arrows="1" fold="1" page="1" pageScale="1" pageWidth="827" pageHeight="1169" math="0" shadow="0">
      <root>
        <mxCell id="0" />
        <mxCell id="1" parent="0" />
        <mxCell id="hMwawwRiiHEFU0PkJUY--4" style="edgeStyle=orthogonalEdgeStyle;rounded=0;orthogonalLoop=1;jettySize=auto;html=1;entryX=0;entryY=0.5;entryDx=0;entryDy=0;" edge="1" parent="1" source="hMwawwRiiHEFU0PkJUY--1" target="hMwawwRiiHEFU0PkJUY--2">
          <mxGeometry relative="1" as="geometry" />
        </mxCell>
        <mxCell id="hMwawwRiiHEFU0PkJUY--5" style="edgeStyle=orthogonalEdgeStyle;rounded=0;orthogonalLoop=1;jettySize=auto;html=1;entryX=0;entryY=0.5;entryDx=0;entryDy=0;" edge="1" parent="1" source="hMwawwRiiHEFU0PkJUY--1" target="hMwawwRiiHEFU0PkJUY--3">
          <mxGeometry relative="1" as="geometry" />
        </mxCell>
        <mxCell id="hMwawwRiiHEFU0PkJUY--1" value="Land Management System" style="rounded=1;whiteSpace=wrap;html=1;" vertex="1" parent="1">
          <mxGeometry x="40" y="280" width="120" height="60" as="geometry" />
        </mxCell>
        <mxCell id="hMwawwRiiHEFU0PkJUY--7" style="edgeStyle=orthogonalEdgeStyle;rounded=0;orthogonalLoop=1;jettySize=auto;html=1;entryX=0;entryY=0.5;entryDx=0;entryDy=0;" edge="1" parent="1" source="hMwawwRiiHEFU0PkJUY--2" target="hMwawwRiiHEFU0PkJUY--6">
          <mxGeometry relative="1" as="geometry" />
        </mxCell>
        <mxCell id="hMwawwRiiHEFU0PkJUY--2" value="Public API" style="rounded=1;whiteSpace=wrap;html=1;" vertex="1" parent="1">
          <mxGeometry x="200" y="220" width="120" height="60" as="geometry" />
        </mxCell>
        <mxCell id="hMwawwRiiHEFU0PkJUY--8" style="edgeStyle=orthogonalEdgeStyle;rounded=0;orthogonalLoop=1;jettySize=auto;html=1;entryX=0;entryY=0.5;entryDx=0;entryDy=0;" edge="1" parent="1" source="hMwawwRiiHEFU0PkJUY--3" target="hMwawwRiiHEFU0PkJUY--6">
          <mxGeometry relative="1" as="geometry" />
        </mxCell>
        <mxCell id="hMwawwRiiHEFU0PkJUY--3" value="Internal API" style="rounded=1;whiteSpace=wrap;html=1;" vertex="1" parent="1">
          <mxGeometry x="200" y="350" width="120" height="60" as="geometry" />
        </mxCell>
        <mxCell id="hMwawwRiiHEFU0PkJUY--6" value="SFI&lt;br&gt;(Node.js)" style="rounded=1;whiteSpace=wrap;html=1;" vertex="1" parent="1">
          <mxGeometry x="400" y="280" width="120" height="60" as="geometry" />
        </mxCell>
        <mxCell id="hMwawwRiiHEFU0PkJUY--9" value="&lt;ul&gt;&lt;li&gt;Display base map layer&lt;/li&gt;&lt;li&gt;Allow search by customer reference&lt;/li&gt;&lt;li&gt;Display customer land parcels on base map&lt;/li&gt;&lt;li&gt;Allow user to select parcel for further detail&lt;/li&gt;&lt;/ul&gt;" style="text;html=1;strokeColor=none;fillColor=none;align=left;verticalAlign=middle;whiteSpace=wrap;rounded=0;" vertex="1" parent="1">
          <mxGeometry x="380" y="390" width="170" height="20" as="geometry" />
        </mxCell>
      </root>
    </mxGraphModel>
  </diagram>
</mxfile>
